:SAMPLES-PER-SECOND 30
:FULLY-SPECIFIED
:DEGREES
314
root  -1.13932 31.1298 -24.665 177.273 -84.8709 179.632
RightUpLeg  -38.4774 -26.6012 -6.82464
RightLeg  76.3551 -1.8842 -10.3427
RightFoot  -26.6267 1.31286 11.097
RightToes  -1.33073e-015 0 -3.6325e-017
Spine  32.6287 1.17963 2.97177
Spine1  -16.1446 2.26004 -3.6594
HEad  -23.7429 8.8165 -10.2377
LeftShoulder1  0.594711 9.86956 20.3608
LeftArm  -77.1886 -11.7956 -2.05675
LeftForeArm  -38.8113 -59.2467 -21.8382
LeftHand  0.320536 6.38993 35.0863
RightShoulder  0.0727193 -6.59301 -12.2735
RightArm  -81.537 3.33112 -9.45196
RightForeArm  -47.6025 53.2151 17.589
RightHand  -1.1806 -0.782113 -29.5115
LeftUpLeg  -38.3669 30.2953 0.456847
LeftLeg  78.2345 2.24151 14.2871
LeftFoot  -32.0573 -1.51915 -9.28576
LeftToes  -4.0021e-011 8.38769e-011 -3.99229e-011
315
root  -1.19831 30.953 -25.3272 -178.56 -85.5558 174.229
RightUpLeg  -37.2006 -26.4458 -6.73737
RightLeg  77.79 -1.77202 -11.153
RightFoot  -28.2407 1.49669 11.3392
RightToes  -1.33073e-015 0 -3.6325e-017
Spine  32.5625 1.72205 1.02378
Spine1  -13.8797 2.26793 -2.64225
HEad  -25.3447 8.85955 -9.048
LeftShoulder1  0.68552 9.8944 21.8652
LeftArm  -79.3976 -10.7049 -4.76069
LeftForeArm  -34.8131 -62.617 -25.5905
LeftHand  0.394574 6.55386 36.926
RightShoulder  0.0660564 -6.46785 -12.0494
RightArm  -79.6831 -0.00281851 -7.29778
RightForeArm  -47.8921 55.1842 19.2288
RightHand  -0.768503 -2.78398 -33.173
LeftUpLeg  -36.6167 29.325 2.36365
LeftLeg  78.6022 1.99511 13.5098
LeftFoot  -32.6705 -1.81286 -10.6836
LeftToes  -4.0021e-011 8.38769e-011 -3.99229e-011
316
root  -1.51306 31.6203 -26.0357 -174.156 -86.2152 168.163
RightUpLeg  -32.9334 -25.5716 -6.84881
RightLeg  75.3228 -2.69689 -12.8306
RightFoot  -27.66 1.48512 11.6302
RightToes  -1.33073e-015 0 -3.6325e-017
Spine  31.7447 2.00173 -1.22434
Spine1  -13.4858 1.82498 -1.42275
HEad  -21.2864 9.81399 -6.79966
LeftShoulder1  0.474359 8.54688 20.298
LeftArm  -75.6369 -9.61729 -11.3574
LeftForeArm  -16.0713 -71.9507 -42.8086
LeftHand  0.315793 6.29503 37.5107
RightShoulder  -0.00752408 -5.52185 -8.9679
RightArm  -74.996 -2.23819 2.20147
RightForeArm  -34.5615 65.6336 29.9751
RightHand  -1.16241 -1.61355 -35.078
LeftUpLeg  -32.6458 28.8948 5.13883
LeftLeg  76.1458 2.07176 11.1133
LeftFoot  -28.9901 -1.72483 -12.1905
LeftToes  -4.0021e-011 8.38769e-011 -3.99229e-011
317
root  -1.96623 33.0299 -26.6781 -176.217 -87.0153 169.851
RightUpLeg  -28.697 -25.859 -6.48259
RightLeg  70.3128 -3.75808 -12.4699
RightFoot  -23.2047 1.08446 11.9044
RightToes  -1.33073e-015 0 -3.6325e-017
Spine  29.7839 1.38855 -2.18761
Spine1  -14.29 0.938649 -1.1846
HEad  -15.1014 10.9665 -4.96602
LeftShoulder1  0.13939 6.96864 14.1465
LeftArm  -66.8761 -7.70467 -17.3773
LeftForeArm  25.6267 -77.7559 -82.0831
LeftHand  0.233897 6.07862 36.3203
RightShoulder  -0.0353722 -4.18315 -2.84048
RightArm  -68.2552 -3.98789 13.5708
RightForeArm  -1.8566 75.3361 55.7246
RightHand  -2.03921 1.51281 -33.649
LeftUpLeg  -27.827 28.6036 7.49683
LeftLeg  69.4034 2.94319 9.50634
LeftFoot  -24.7919 -1.34162 -12.5686
LeftToes  -4.0021e-011 8.38769e-011 -3.99229e-011
318
root  -2.41903 34.8773 -27.177 171.803 -87.9533 -177.217
RightUpLeg  -25.5038 -28.2753 -6.65093
RightLeg  64.2066 -2.38515 -6.12689
RightFoot  -14.4327 0.236727 13.0934
RightToes  -1.33073e-015 0 -3.6325e-017
Spine  27.1871 0.440824 -1.72005
Spine1  -15.4031 0.137524 -1.76928
HEad  -10.3304 11.8449 -4.1611
LeftShoulder1  -0.0610669 4.9899 3.95176
LeftArm  -57.4459 -3.4515 -20.5482
LeftForeArm  59.141 -76.976 -112.5
LeftHand  0.0374446 5.4799 34.9618
RightShoulder  0.144003 -2.38659 4.73275
RightArm  -61.7463 -8.38832 21.9048
RightForeArm  36.7942 77.9913 88.0227
RightHand  -2.47626 3.38351 -32.1546
LeftUpLeg  -22.6463 28.3023 8.78708
LeftLeg  58.6885 4.40249 8.35834
LeftFoot  -21.1813 -0.929802 -12.2268
LeftToes  -4.0021e-011 8.38769e-011 -3.99229e-011
319
root  -2.82939 36.6787 -27.5825 154.534 -88.6363 -158.736
RightUpLeg  -22.3586 -31.1228 -8.30186
RightLeg  57.2963 2.36637 3.38753
RightFoot  -5.15374 -0.879844 15.6164
RightToes  -1.33073e-015 0 -3.6325e-017
Spine  24.7665 0.20884 -1.21899
Spine1  -16.4315 0.00850671 -1.8954
HEad  -7.8601 12.1726 -4.14458
LeftShoulder1  0.173976 2.29139 -6.66167
LeftArm  -51.0631 2.66429 -21.9853
LeftForeArm  67.451 -76.267 -118.817
LeftHand  -0.210033 4.67463 34.454
RightShoulder  0.531862 -0.573961 11.2074
RightArm  -58.6788 -15.3506 26.3134
RightForeArm  52.692 77.6688 102.735
RightHand  -2.27494 2.45983 -33.0421
LeftUpLeg  -17.291 28.0042 9.31634
LeftLeg  46.4643 5.84036 6.98874
LeftFoot  -16.7732 -0.482556 -12.2862
LeftToes  -4.0021e-011 8.38769e-011 -3.99229e-011
320
root  -3.20602 38.1957 -28.002 138.274 -88.7673 -141.294
RightUpLeg  -18.3187 -31.5668 -10.3439
RightLeg  47.7476 6.02781 6.87831
RightFoot  -2.22213 -1.4136 17.5739
RightToes  -1.33073e-015 0 -3.6325e-017
Spine  22.0773 0.698522 -1.10539
Spine1  -16.5585 0.483952 -0.937883
HEad  -6.99196 11.9729 -4.53883
LeftShoulder1  0.676064 0.0758765 -13.0179
LeftArm  -48.0918 7.82745 -23.9693
LeftForeArm  63.8123 -76.6387 -115.491
LeftHand  -0.308283 4.33885 33.9871
RightShoulder  0.789744 0.251794 14.3345
RightArm  -58.8262 -20.8225 28.776
RightForeArm  54.186 77.3706 106.603
RightHand  -1.962 1.35321 -33.1979
LeftUpLeg  -12.4469 27.7396 9.78702
LeftLeg  34.8842 7.21788 5.77242
LeftFoot  -10.7778 0.132025 -13.0485
LeftToes  -4.0021e-011 8.38769e-011 -3.99229e-011
321
root  -3.51901 39.4212 -28.4429 120.715 -88.3874 -122.143
RightUpLeg  -13.824 -28.3481 -11.4191
RightLeg  34.3622 0.504834 0.524311
RightFoot  -5.43671 -0.94273 17.1762
RightToes  -1.33073e-015 0 -3.6325e-017
Spine  18.4586 1.06323 -0.523253
Spine1  -15.3464 0.910495 0.49195
HEad  -6.57708 11.6267 -4.7018
LeftShoulder1  0.853532 -0.636021 -13.6788
LeftArm  -47.1298 9.23573 -25.7622
LeftForeArm  57.9353 -77.0216 -111.155
LeftHand  -0.331051 4.22027 32.717
RightShoulder  0.685575 -0.179141 13.727
RightArm  -60.3314 -21.8594 30.1746
RightForeArm  55.4609 77.3709 106.949
RightHand  -2.43701 4.14805 -29.3268
LeftUpLeg  -8.79893 27.1124 10.4472
LeftLeg  24.3586 9.03929 4.69372
LeftFoot  -3.96204 0.938283 -14.1029
LeftToes  -4.0021e-011 8.38769e-011 -3.99229e-011
322
root  -3.70338 40.1873 -28.8916 98.552 -88.0709 -98.0449
RightUpLeg  -10.092 -21.465 -12.143
RightLeg  21.5628 -17.5519 -7.44682
RightFoot  -7.75933 -0.427291 12.2283
RightToes  -1.33073e-015 0 -3.6325e-017
Spine  15.0888 0.871444 0.209696
Spine1  -14.3333 0.781877 1.59203
HEad  -5.67629 11.3369 -4.25144
LeftShoulder1  0.659934 -0.131892 -10.8537
LeftArm  -47.4577 6.16875 -24.5358
LeftForeArm  52.5068 -77.325 -106.801
LeftHand  -0.413034 3.85151 30.9292
RightShoulder  0.446026 -1.06097 11.199
RightArm  -62.1144 -19.073 28.8168
RightForeArm  55.4704 77.4224 106.437
RightHand  -2.41376 4.80843 -27.6254
LeftUpLeg  -6.82489 24.2385 11.0213
LeftLeg  16.0297 12.4995 3.30957
LeftFoot  1.68633 1.69148 -14.8682
LeftToes  -4.0021e-011 8.38769e-011 -3.99229e-011
323
root  -3.71035 40.3857 -29.3741 64.4297 -87.9308 -62.2865
RightUpLeg  -7.82607 -13.5101 -13.8816
RightLeg  13.5365 -35.0524 -8.6934
RightFoot  -8.18557 -0.247339 6.85891
RightToes  -1.33073e-015 0 -3.6325e-017
Spine  14.1711 0.339017 0.392729
Spine1  -15.8225 0.266943 2.20522
HEad  -4.6318 10.7154 -3.8309
LeftShoulder1  0.379271 0.857484 -6.59729
LeftArm  -49.512 -0.125696 -20.1814
LeftForeArm  39.5106 -77.7884 -94.2507
LeftHand  -0.542453 3.21333 28.657
RightShoulder  0.282098 -1.678 8.12709
RightArm  -63.7034 -14.762 23.8723
RightForeArm  44.2523 77.5273 101.535
RightHand  -1.41197 -0.958644 -35.8891
LeftUpLeg  -6.95578 19.96 11.1761
LeftLeg  12.0791 16.2988 2.1402
LeftFoot  4.17765 1.99506 -14.7611
LeftToes  -4.0021e-011 8.38769e-011 -3.99229e-011
